<svg width="1920" height="963" viewBox="0 0 1920 963" fill="none" xmlns="http://www.w3.org/2000/svg">
<g opacity="0.3">
<line y1="162.75" x2="1892.4" y2="162.75" stroke="white" stroke-width="0.5" stroke-dasharray="5 5"/>
<line y1="252.75" x2="1892.4" y2="252.75" stroke="white" stroke-width="0.5" stroke-dasharray="5 5"/>
<line y1="342.75" x2="1892.4" y2="342.75" stroke="white" stroke-width="0.5" stroke-dasharray="5 5"/>
<line y1="432.75" x2="1892.4" y2="432.75" stroke="white" stroke-width="0.5" stroke-dasharray="5 5"/>
<line y1="522.75" x2="1892.4" y2="522.75" stroke="white" stroke-width="0.5" stroke-dasharray="5 5"/>
<line y1="612.75" x2="1892.4" y2="612.75" stroke="white" stroke-width="0.5" stroke-dasharray="5 5"/>
<line y1="702.75" x2="1892.4" y2="702.75" stroke="white" stroke-width="0.5" stroke-dasharray="5 5"/>
<line y1="792.75" x2="1892.4" y2="792.75" stroke="white" stroke-width="0.5" stroke-dasharray="5 5"/>
<line y1="882.75" x2="1892.4" y2="882.75" stroke="white" stroke-width="0.5" stroke-dasharray="5 5"/>
<line x1="936.595" y1="107" x2="936.595" y2="939" stroke="white" stroke-width="0.5" stroke-dasharray="5 5"/>
<line x1="827.437" y1="107" x2="827.437" y2="939" stroke="white" stroke-width="0.5" stroke-dasharray="5 5"/>
<line x1="718.279" y1="107" x2="718.279" y2="939" stroke="white" stroke-width="0.5" stroke-dasharray="5 5"/>
<line x1="609.121" y1="107" x2="609.121" y2="939" stroke="white" stroke-width="0.5" stroke-dasharray="5 5"/>
<line x1="499.963" y1="107" x2="499.962" y2="939" stroke="white" stroke-width="0.5" stroke-dasharray="5 5"/>
<line x1="390.804" y1="107" x2="390.804" y2="939" stroke="white" stroke-width="0.5" stroke-dasharray="5 5"/>
<line x1="281.646" y1="107" x2="281.646" y2="939" stroke="white" stroke-width="0.5" stroke-dasharray="5 5"/>
<line x1="172.488" y1="107" x2="172.488" y2="939" stroke="white" stroke-width="0.5" stroke-dasharray="5 5"/>
<line x1="63.3301" y1="107" x2="63.33" y2="939" stroke="white" stroke-width="0.5" stroke-dasharray="5 5"/>
<line x1="1811.09" y1="107" x2="1811.09" y2="939" stroke="white" stroke-width="0.5" stroke-dasharray="5 5"/>
<line x1="1701.93" y1="107" x2="1701.93" y2="939" stroke="white" stroke-width="0.5" stroke-dasharray="5 5"/>
<line x1="1592.78" y1="107" x2="1592.78" y2="939" stroke="white" stroke-width="0.5" stroke-dasharray="5 5"/>
<line x1="1483.62" y1="107" x2="1483.62" y2="939" stroke="white" stroke-width="0.5" stroke-dasharray="5 5"/>
<line x1="1374.46" y1="107" x2="1374.46" y2="939" stroke="white" stroke-width="0.5" stroke-dasharray="5 5"/>
<line x1="1265.3" y1="107" x2="1265.3" y2="939" stroke="white" stroke-width="0.5" stroke-dasharray="5 5"/>
<line x1="1156.14" y1="107" x2="1156.14" y2="939" stroke="white" stroke-width="0.5" stroke-dasharray="5 5"/>
<line x1="1046.99" y1="107" x2="1046.99" y2="939" stroke="white" stroke-width="0.5" stroke-dasharray="5 5"/>
</g>
<path d="M-227 963C-227 963 -227 567.74 67.0513 567.74C217.074 567.74 250.223 718.253 384.317 718.253C505.062 718.253 529.061 486.594 651.284 486.594C748.203 486.594 745.053 567.74 945.335 567.74C1145.62 567.74 1338.31 195 1569.02 195C1774.16 195 1966.15 431.624 2057 326.871" stroke="url(#paint0_linear_29_481)" stroke-width="30"/>
<g filter="url(#filter0_f_29_481)">
<path d="M-227 271C-227 271 -227 231.886 -197.646 231.886C-182.67 231.886 -179.361 246.78 -165.975 246.78C-153.922 246.78 -151.526 223.856 -139.325 223.856C-129.65 223.856 -129.965 231.886 -109.972 231.886C-89.9786 231.886 -70.7431 195 -47.7126 195C-27.2343 195 -8.06868 218.416 1.00001 208.05" stroke="url(#paint1_linear_29_481)" stroke-width="30"/>
</g>
<defs>
<filter id="filter0_f_29_481" x="-422" y="0" width="614.29" height="451.072" filterUnits="userSpaceOnUse" color-interpolation-filters="sRGB">
<feFlood flood-opacity="0" result="BackgroundImageFix"/>
<feBlend mode="normal" in="SourceGraphic" in2="BackgroundImageFix" result="shape"/>
<feGaussianBlur stdDeviation="90" result="effect1_foregroundBlur_29_481"/>
</filter>
<linearGradient id="paint0_linear_29_481" x1="2299.52" y1="377.096" x2="1778.69" y2="1542.33" gradientUnits="userSpaceOnUse">
<stop stop-color="#2F7FFF"/>
<stop offset="1" stop-color="white"/>
</linearGradient>
<linearGradient id="paint1_linear_29_481" x1="25.2093" y1="213.02" x2="-26.0309" y2="328.662" gradientUnits="userSpaceOnUse">
<stop stop-color="#2F7FFF"/>
<stop offset="1" stop-color="white"/>
</linearGradient>
</defs>
</svg>
