<svg width="650" height="479" viewBox="0 0 650 479" fill="none" xmlns="http://www.w3.org/2000/svg">
<g opacity="0.5" filter="url(#filter0_i_29_567)">
<path fill-rule="evenodd" clip-rule="evenodd" d="M96.219 211.26C133.38 250.303 188.702 287.496 258.421 313.148C267.113 316.345 275.663 319.289 284.064 321.991C322.434 305.466 377.441 292.279 439.035 284.867C470.683 281.058 496.667 280.267 517.273 281.819C537.522 283.345 554.058 287.236 565.533 293.944C576.953 300.619 587.246 312.997 582.324 330.913C578.046 346.49 564.182 357.588 551.687 364.633C525.355 379.477 482.992 389.2 430.576 389.085C388.079 388.992 337.668 382.447 281.374 365.916C273.067 370.478 267.959 374.472 265.333 377.43C264.68 378.166 264.312 378.689 264.114 379.012C264.182 379.176 264.286 379.397 264.447 379.678C266.436 383.166 273.545 389.737 292.335 397.099C310.413 404.182 336.758 411.035 373.059 417.027C445.587 428.997 555.329 437.127 712.315 437.955L705.398 478.753C547.382 477.92 435.178 469.749 359.634 457.281C321.9 451.054 292.677 443.654 271.257 435.262C250.55 427.149 234.233 417.023 226.467 403.406C222.304 396.105 220.454 387.503 222.264 378.06C224.042 368.786 228.977 360.637 234.937 353.924C235.717 353.046 236.526 352.179 237.361 351.325C163.317 323.972 103.728 284.156 62.917 241.278C22.572 198.891 -1.60195 151.121 0.879185 107.503C2.15877 85.0089 10.6351 63.1537 28.0755 44.9224C45.2774 26.9405 69.1979 14.5691 98.0503 7.53044C155.008 -6.36445 237.147 -1.0022 346.857 29.7987C522.431 79.091 634.321 138.415 702.884 193.405C770.612 247.725 798.209 299.651 799.341 335.141L756.926 342.785C756.277 322.459 737.729 278.455 672.813 226.39C608.731 174.994 501.477 117.478 329.271 69.1309C221.617 38.9073 147.826 35.8668 102.159 47.0074C79.6994 52.4865 65.6343 60.9923 57.1616 69.8492C48.9274 78.4568 44.04 89.402 43.2511 103.272C41.5952 132.382 58.465 171.595 96.219 211.26ZM263.998 378.64C263.999 378.64 264.004 378.66 264.008 378.7C263.998 378.659 263.996 378.639 263.998 378.64ZM263.921 379.367C263.912 379.397 263.905 379.412 263.904 379.412C263.903 379.412 263.908 379.397 263.921 379.367ZM354.619 340.051C385.26 345.818 413.011 348.233 437.361 348.286C485.891 348.393 518.987 339.146 534.789 330.237C535.804 329.665 536.683 329.133 537.443 328.644C532.138 326.191 522.639 323.647 507.408 322.5C490.275 321.209 467.25 321.782 437.639 325.346C407.12 329.018 379.066 334.093 354.619 340.051ZM541.811 331.377C541.804 331.378 541.757 331.332 541.69 331.237C541.784 331.329 541.817 331.377 541.811 331.377Z" fill="url(#paint0_radial_29_567)"/>
</g>
<defs>
<filter id="filter0_i_29_567" x="0.704956" y="0.278809" width="798.636" height="482.475" filterUnits="userSpaceOnUse" color-interpolation-filters="sRGB">
<feFlood flood-opacity="0" result="BackgroundImageFix"/>
<feBlend mode="normal" in="SourceGraphic" in2="BackgroundImageFix" result="shape"/>
<feColorMatrix in="SourceAlpha" type="matrix" values="0 0 0 0 0 0 0 0 0 0 0 0 0 0 0 0 0 0 127 0" result="hardAlpha"/>
<feOffset dy="4"/>
<feGaussianBlur stdDeviation="2"/>
<feComposite in2="hardAlpha" operator="arithmetic" k2="-1" k3="1"/>
<feColorMatrix type="matrix" values="0 0 0 0 0 0 0 0 0 0 0 0 0 0 0 0 0 0 0.06 0"/>
<feBlend mode="normal" in2="shape" result="effect1_innerShadow_29_567"/>
</filter>
<radialGradient id="paint0_radial_29_567" cx="0" cy="0" r="1" gradientUnits="userSpaceOnUse" gradientTransform="translate(401.645 233.845) rotate(-38) scale(205.305 285.772)">
<stop stop-color="#B5E3FF"/>
<stop offset="1" stop-color="#0C89D6"/>
</radialGradient>
</defs>
</svg>
