<svg width="23" height="21" viewBox="0 0 23 21" fill="none" xmlns="http://www.w3.org/2000/svg">
<path d="M2.17981 9.1C1.40661 9.1 0.77981 9.7268 0.77981 10.5C0.77981 11.2732 1.40661 11.9 2.17981 11.9V9.1ZM21.8102 11.4899C22.3569 10.9432 22.3569 10.0568 21.8102 9.51005L12.9006 0.600505C12.3539 0.053771 11.4675 0.053771 10.9207 0.600505C10.374 1.14724 10.374 2.03367 10.9207 2.5804L18.8403 10.5L10.9207 18.4196C10.374 18.9663 10.374 19.8528 10.9207 20.3995C11.4675 20.9462 12.3539 20.9462 12.9006 20.3995L21.8102 11.4899ZM2.17981 11.9H20.8202V9.1H2.17981V11.9Z" fill="white"/>
</svg>
